/* XPM */
static char *_4e56733068f44ddef3e689b68d55614IPdduMLSgqRWQpkK[] = {
/* columns rows colors chars-per-pixel */
"64 64 20 1 ",
"  c black",
". c #252525",
"X c gray19",
"o c gray23",
"O c #040641",
"+ c #05074B",
"@ c #060857",
"# c #070962",
"$ c #070A6D",
"% c #080C78",
"& c #555555",
"* c #090C84",
"= c #0A0E93",
"- c #0B0F9F",
"; c #0C10AA",
": c #0D11B6",
"> c #0E12C2",
", c #0F13CE",
"< c #0F15DA",
"1 c #4445F6",
/* pixels */
"X.             .::;;;====--;;;%=%%=*%%%*                      .o",
"$;%@%@##OOOOOO .:;;;;-===--;:;==%%==-**% *%$@@#.:%%#@##@OOOO#%%&",
"%;=-%##**@@%%@ .:-;:;--==:::--=**%---**= *%$%$@.:-=%%@@@@%%@O$%&",
"%;;--%***==%%@ .::-:::-;:;::--:**:--==:= ==%$%$.:--=%%@%==%%#$%&",
"%;;=;%**--=##@ .:::::::::::::::::::::::: *===**.::--%%%$==%%$%%&",
"%;-%:-%$--%#%@ .     ...........................:*-*-%###%%$%%%&",
"%;=-:;--==-%#$ .-%%@@ .                        .:-=*-%$$%==$%%%&",
"%;--;-==-%:%$% .-*;%# ;=*%##$@@##@#@##OOOOOOOO .:;;;;-%%=;;*$%%&",
"%;:;-:==:%%:%% .-;;*@ ;-=*-*%---==$$%%##@@@$@# .:;;;;---;;;%%%%&",
"$;;;;;;;;::::: .----- ;---*-*-=-;=@==%@%**@@@@ .:;;>>===;;--%-%&",
"o.................... ;->>---==;;*=%=#%-:*$#$@ .:;,>>===*----=%&",
"o.   ..               ;>>>>--==**--=%%-:--%$#@ .;-,,===-;**:=%%&",
"*:$$ .###@@@##@##@OOO ;;;>-->>>->>----;----*$% .;-;::;-=:;--:-*&",
"*:=# .=%%@%@$$@@$$#@O ;>>>;>>>;;;->>>;;;>->;-% .;;-:=:;;;:;;:-*&",
"*:-$ .==%%-%$$@-=%@@@ ;;;;;;;;;;;;;;;--------* .;;;;;;;;;::::::&",
"*::* .-*=%%=**-=-$@#@ ........................................o&",
"*::* .-====***=-=%@@# ..              ..                     .o&",
"*:-$ .-==--%*-%--==%% .-@@@@#@OOOOOOO .-%%####+OO+#+OO#OOOOO@$%&",
"*:=@ .----------===== .=-%@@@@$$O#++O .--=%=%%+OO@$+OO@@@OOOO@%&",
"*:*$ ..................;%--%@$$$@##+O .-=*=$%%@@@$$+@+#@@OO@+@%&",
"*:-$ .                .;:-%%@$$#OO#+O .-:%=%%%#@@##@@@$$##@+O%%&",
"*::# ---%#@O#OOOOOOOO .;:-%-%$@@OO#@O .-%*-%%@%###@#@$$%%+OO#%%&",
"*:-$ --=-%##@#@@O@O@O .;:--$%**#@#@@O .-*%-=*#####@@#$*=%+OO$%%&",
"*:*$ -:-=%%#@###@###O .;-:%%***@$$@@O .-==-%$##$#@@@#===%+@+$%%&",
"*:$# -:-%%%-%%%%@OO#@ .;%:%%**$$$$#@@ .---%%$$%*%$@$%==%@@#+O@%&",
"*:*- -;--#*$%*$#%OO@# .;;--%%%--$#### .---%%$$%=%*--%@@@@$$+O@%&",
"*:-- -=;%*##==*#%%$@# .;:-%-----##%%# .--=%%%%-%%%--%@%@$$$@@#%&",
"*:-% -=;-=##=*%==$%@@ .;-:;----%%%%%# .--=%%%=-%%----***@#@@@$%&",
"*:*@ -;==----%**=#%$# .;;-,,-%%%$%%%# .--::%=----:::-%%*$$@##%%&",
"*:=@ -===--;;%**%*#$# .;-<,,:;-%%$#@@ .-->:;----::::-*%$$--##%%&",
"*:$$ -==:-:;;%%---*#@ .;:,<--:---%$#@ .--;;;%::-::::*%*$---##%%&",
"*:$@ -:---::-*----*%# .;;::----=-=%#@ .-;;;;,,-;:::*%%%%--%@@%%&",
"*:== -=:-;;;==----%%% .;:<<>-**;;-%$@ .-:-;,,,:==;-*%%%***--=%*&",
"*::$ -=-;==;==**-=*-= .;:<,>;**;;---% .-:-;,,:===;=:%*:-=%::%%*&",
"*:-= --;===;:***=--*= .;:>,;;;;;-%--- .-::>:::==;;--=*=:-==:-=*&",
"*:%= -;>>=;;=**=*::-= .;-;:;;::-%:%%- .-:>>:;;>>:---=-:--==%:-*&",
"*:;= -:<:;;-->>-----= .;;--::-;:--::% .-:>>:::;>:--::::=---:;=*&",
"*::- -::>;;--<>-=-=-- .;::;:;-:::-%-- .-:::::;--:;::--=::-;;-->&",
"*:-: -:;;;::;;::;-;;- .;;;;;;;;;;;;;; .--;;;;------------------&",
"*::: ---------------- ........................................o&",
"o...............            ..                ..             .o&",
"o.              =:%###@#@## .-*=#@#@##@#@@##@ .=*%$-$##%%#@@#%%&",
"$-@##O#OOOOOOOO =%%==%%@#@@ .-=*$*$@*@*@@%%#@ .-==%%-%**%#$##%%&",
"%-$$@@$O@@@##@O -:===%%#*$@ .;-=*;$-@;;*%%%@@ .-*;--%;=*%#%#$%%&",
"%-$%@@#@#%%OO#O -:;;%%#**$@ .;*-=*;;==**%%*=* .;:;%--;;-:--#*%%&",
"%-%%$%@#%%%OOOO ;=:;=:==%#@ .;;--;;;==;;;;--= .:%-:;;-:;-:;--**&",
"%--$%$##%%#@O$O ;;:::==::%% .;;;;;;;;;;;;---- .::::::::::::;;-*&",
"%-%%@$$%$##O$OO ;;;;;;;;--= ..................................o&",
"%-==#*$**$#%$OO                          ..                  .o&",
"%-==%==**#@#O#O -%=%%%@@@##@O@#OOOO@@OOO #:::;*-----*###@#$@#%%&",
"%-%#*===*##@#$O -==%%%@%@@@@O@OO@@#@#O@O $:-:=*:-*--%++#%$$@$%%&",
"%-=-*=--$@$#%#O --%%@$%#@$$$@#####@@@OOO %:--:-:%-%%*++%$==##%%&",
"%-===---$$$%#%O -%%%=#$%$**$##@%%$@@O@#O *:-=::-;%+%=-$==-=@$$%&",
"%-%-%%-#=--@%#O ;-==%##$%**$@@@%%++#@OOO *:::-==;%%---%=--*=#$%&",
"%-=%%%=%%--%#@# --=%=%=%%=%%$#@$$++@#O@O *:;:===;;=*=%*--*#%@$%&",
"%--%%%-==%=#%@% -*%%=%%==%=##$###@@@@#@O $:-:==--*;-=-*=%#+%#$%&",
"%--==#--*%$**## --*%%=%==#---%##$#%%%@@$ $:;;:;;*:::<:*%;%#-@%%&",
"%-%=>>-;-%*-*$$ -;-=%%=%=;;;-=%%%#%%%$$% @::,,;;;*-<1<;%**-#*%%&",
"%--=>>;;--*%#%# -:-=;,-==;;-=--*%%%%##%$ @::,,;*:--:<:;-*=**#%%&",
"%-**$-;-=*-%%%# ;-*;:;=%;*-=---*$*%$%%$# .::;;-=-:==-;;;;-*#*%%&",
"%--%-%==%**==%= -==;;=*=*%*=--*%=**%$#*% .;:;:;;=::=:::;::*$*%*&",
"%--=**=-=*%*%=% ;-===*%*=*%;**=*-==*#%=* .-:::-:::-;-;-:-----=*&",
"$---------===== :;;-*-*-;-==*=***-=**=*= .=--::::::::::-::;;--*&",
"o.              -::;--;;;;-;--====%%%%%% .....................o&"
};
