/* XPM */
static char *_623a889fe854243a4c01e01d9ccc04amNQrLXjM8ssrlkIL[] = {
/* columns rows colors chars-per-pixel */
"64 64 26 1 ",
"  c #3A301D",
". c #222222",
"X c #252525",
"o c #2C2C2C",
"O c gray19",
"+ c gray20",
"@ c #373737",
"# c gray23",
"$ c #423320",
"% c #493B21",
"& c #543F24",
"* c #5B4228",
"= c #6B4A2C",
"- c #724E30",
"; c #7E5134",
": c gray26",
"> c gray29",
", c gray30",
"< c #555555",
"1 c gray36",
"2 c #646464",
"3 c gray44",
"4 c #7B7B7B",
"5 c #8B8B8B",
"6 c #979797",
"7 c #A7A7A7",
/* pixels */
"432,1,,,,,,>,,,>#::22>&*%%%%%&&&%%%%%%%$>2<OOOOOX>4444==********",
"322,1,,,,,,,,,,,>#::24>&*%%%%&&&%%%%%%%$>2#XXXOOX>422222==******",
"222,1,,,,,,,>>>>,>##<24>&*%%%&&&%&%%%%$>2<OOOOXXX>2>>>>><2==****",
"122,1,,,,,,,>>>>,,:@#<242>&%%%%%%%%%%$>24#OOOOOOX><<<,,>>><<==**",
"122,1,,,>,,,>>>>,,>@:#<242>&%%%%%%%%$>244OOOOOOOX><<<<<,>,>>>2==",
"<22,1,,,,,,,>>>>,,,##:#<242>&&&&&&&$>2444OOOOOOOX4<<<<<<<>>,<,22",
",22,1,,,,,,,,,,,,,,:@::#<2432<12422222222222222224<<,<<<<<,><<,2",
",12<1,,,,,,>>,,,,,,>##:##<2431<1*&&&&&&%%%%%%%%>23<<<<<<<<<,><,4",
",<2<1,,,,,,>>,,,,,,,:@::##<5421-**************&%>2<<<,,<<<<,,244",
",<211,,,,,,,,,,,,,,,:@::##<5533****************&%>22<,,<<<<,2<<<",
"<,121,,,,,,,,,,,,,,,>@::##<4534%%%%%%&&*****&***&%>242<<<<22XXXX",
"<,<21,>,,,,,,,,,,>,,>@::##<4422-******&&&*****&&*&%>2552<42#OOOO",
"2<,21,,,,,,,,,,,,,,,>@::#<242<2-*********&&***&&**%>>25542#OOOOo",
"<2<21,,,,,>,,,,,,,,,>@:#<24<>>2-***********&******&%>2342#OOOOoX",
"3<221,,,>,,,,,,,,,,,>@#<24<>>>2-******************&&<342#OOOOoXX",
"23<21,,,,>,>,,,,,,,,:#<24<>>>>2-**&***************&<342#OOOOoXXo",
">23<2<,,,,,,,,,,,,,,::243<>>>>2-*****************&<342#OOOOoXoOO",
"O>23<2<,,,>,,,,,,,,>:235532<><2-***************=*&342#OOOOoXooXX",
"OO>23<2<,,,,,,,,,,,:226654332<4-======*=*****==*&232#OOOOoXoX...",
"OOO>23<2<<11<<<<,,:235664322234-=*******=-;;-=*&232#OOOOoXXXXXXX",
"OOO>274422222222<<223554<:,<<23<==;;;;;;;;-=***&32#OOOooXXXXXooo",
"OOO>25766554544442<%%24<:##@O,<232<>===*******&22#OooOOXXXXooOOO",
"OO>24222222333444***%2<:::::##@O<<2332<===***&22#OOooOXXooOOOOOO",
"O>22>     :,<2234=**%2<::::######OO234432<==&24#OOOOOoXoOOOOOOOO",
"342%%$        :,<2=*%2<::##::::::##O,<234434433#OOOOOXOOOOoOOooO",
"34>$$$%%%$$       1=%4<:#:::::::::::#@O><<234332#OOOoOOOOoOOOooO",
"33*%%%$$          $244<#####@@@@O@OOOO@O@O><23442##oOOOOoooOOOOO",
"34*$$$$$$$%%%%%%$$ $24<::::::::::####@O@O@OO@><342>#OOOOoooOOOOo",
"43*%%%%%%%%%%%%%%%$ ,2<>::>>::::::::::::::###@@O2442##OOOOOOOOOO",
"44*%%%%%%%%%%%%%%%%  ,2<>:>>::::::::::::::::::#@<44442##OOOOOOOO",
"24>*%%%%$$%       $$  12<>:::>::::::::::::::::#O<4>$$>2#########",
"<22*%%%%%%%%%%%$$     :22<>:::::::::::::::::#@#O2>%%%$><2>#OOOOO",
"%<2>*%%%%%%%%%%%%%%$   <42<>::::::::::::::,>@@@<4$$$$$$$>22##oOO",
"&%<4>*%%%%%%%%%%%%%%$  :24<<>::::::::>>,,,>@#O<4>%%%%%$$$><2>#OO",
"&%>24*%%%%%%%%%%%%%%%%  <24<<>::>>>,,,,>::##O<4>$$$$$$$$$$$>22#O",
"*&%<42*%%%%%%%%%%%%%%%%  :14<<<<<<<<<<<<<OO<<55%%%%%%%%%%%$$><22",
"**&%24>*%%%%%%%%%%%%%%%%  ,43<<>>>>>>>>>#@O2255>&%%%%$%$$$$$$$><",
"**&%<44*&%%&%%%%%%%%%%%%  :143<<>::::::##@><2244>&%%%%%%%%%%%%$>",
"***&%242*&%%%%%%%%%%%%%%%  1334<<>:::::#O><>>#><2>&%%%%%%%%%%%%$",
"%%%%%<24>*&%&&%%%%%%%%%%%  ,2434<<>:::#<322<<>#><2>&%%%%%%%%%%%%",
"$$$$$%<24*&%&&%%%%%%%%%%%  >244442<<<23532<<<<>#><2>&%%%%%%%%%%%",
"&&&%%$>242*&%%%%*%%%%%%%$  >2*%%244566552<<<<<<>#><2>&&%%%&%%%%%",
"****&$$<24>*&&%%%%%%%%%%  >2***%%<55662<<<<<>>>>:#><2>*&*%%%%%%%",
"*****&$%242*&&*&%%%%%%%$>24<***&%<4552<<<>:::::@@@@><>&********%",
"******&$<442*%%**&&&&$>2444=****&2542<<>::>>>>>>>::@>2>&&&&&&&&&",
"*******&$2442*&%%%&&>244434=****&442<<><<<<<<<<<<<<>#>2>&%%%%%%%",
"**&&***&$<2432*****24322234<=***442<<<<<<<<<><>>>>>>>#<2>&%%%%%%",
"**&&****&$<2554<2232>>####34=**442<<<<<<<<<<<<<<<<>>>#><2>&%%><2",
"*&******&$><6552>2<<<<<,>>#32=242<<<<<<<<<1<<<<<<<<<>>#><2>><24<",
"*********&$<663><<<<<<<<,>#23332<<<<<<<<<<<<<<<<<<<<<>>#><2444<:",
"*****&***&$<32>>,<<<<<<<<>#2333<1<<<<<<<<<<<<<<<<<<<<<>#><244<::",
"*********&$<2>>>:::::::::#235332<1<<<<1<11<<<<<<<<<<<>#>&%<44:::",
"*********&$<<<<<<,::<<<>234533542<11<<<<<<<<<<1<<<<<>#>**%%<4<::",
"********&%<2<<<<<<<::>>24434443442<<11<<<<111<<<<<<<#>2**&%%<4<:",
"*******&%<24<<<<<<<<>23442<>>><<2242<<1<<<1111<<<<<#>2%%%%$$$<44",
"******&%<2442<<<<<<>3422>$$$$$$$>22342<<<<<111<11<>>2<=****%$ <4",
"-====*%<243332<<<<242>$%%%%%%%%$$>224422<<<<<<<11>>24=*&&&%%%$$<",
"**&%%%<444433432232>$ $$$$    $$%$>223432<<<<<<<<>25<=****&&&%%$",
"**%<2343<>>>#24432>&%%%%%%%%%$    $>223442<<<<<<>255=*********&$",
"*%<2433<>>>>>#244>&%%%%%%%%%%%%%$$  >2245532<<<>245<=**********&",
"$<2333<,,,,,>>#24>&*%%%&%%%%*%%%%%%$ >2256654322335=****&&******",
"43343<,,,,,,,,>#22>&*%%%%%&*%%%%%%%%%$>22665>>22334=****&&******",
"4333<,,,,,,,,,,>#22>&*%%%%&&%%%%%%%%%%$>224>XX>2343<=*&*********",
"443<,,,,,,,,,,,,>#22>&*%%%%%%%%%%%%%%%%$>22OOoX>2444=***********"
};
