/* XPM */
static char *de2d2b5c4ab2433dd90fd35b76cce55bM3FJp4n70U9fcLzw[] = {
/* columns rows colors chars-per-pixel */
"64 64 56 1 ",
"  c #252525",
". c gray19",
"X c gray20",
"o c gray23",
"O c #410709",
"+ c #4C080B",
"@ c #570A0C",
"# c #620B0E",
"$ c #6E0C10",
"% c #790E11",
"& c #543F24",
"* c #585516",
"= c #6F6B1C",
"- c #724E30",
"; c #410941",
": c #480A48",
"> c #500B50",
", c #570C57",
"< c #5F0E62",
"1 c #6A0F6E",
"2 c gray26",
"3 c gray29",
"4 c #555555",
"5 c #646464",
"6 c gray44",
"7 c #7B7B7B",
"8 c #850F13",
"9 c #941115",
"0 c #A01217",
"q c #AC1319",
"w c #B7151A",
"e c #C3161C",
"r c #CF171E",
"t c #DB191F",
"y c #E81A21",
"u c #F81C23",
"i c #F82D32",
"p c #B0561E",
"a c #C86123",
"s c #F8792B",
"d c #A56846",
"f c #838322",
"g c #9A9A28",
"h c #F98838",
"j c #CAC233",
"k c #E3D738",
"l c #FBF33F",
"z c #E58C5F",
"x c #811281",
"c c #981598",
"v c #8B8B8B",
"b c #979797",
"n c #A7A7A7",
"m c gray70",
"M c gray75",
"N c gray81",
/* pixels */
"oo3.=*......rq9%%8$O............w0$$8$$O............w$+800+$+.34",
"o30ljzdOOO .@@@@@@@@ .@OOOOOOO .@@@@@@@@ .@OOOOOOO .@@@$$$00+.34",
"o3w0j=@@@O  @@@@@@@O  @@@@@@@@  @@@@@@@@  @@@@@@@O  @@@@#0##+ 34",
"o3wem67667bnnmmmmmmmmmmmmmMNMMmmmnbvbbnmmmMMNMMmmmmmm7@@@@@0+ 24",
"o3w9m67M767vbnnnnmmmmmmmmmMNMMmmmnbvbbnmmmMMNMMmmmmmmm7@@$$$+ o4",
"o3eem667i0O4OO$$$$$$$$$%%89998%$$#@+@###$$88998$$$$$7bm4@@00+ 24",
"o4e%m77ObN7577vvvbnnnnnnnmMNMMmmmnbvbbnmmmMMNMMmmmb7$7m7@@$$+ 34",
"o4e0m7bO6nNMnv77vvvbbnnbbb11<<>5bnbvbbnmmmMMNMMmmmmm7$mm@@@0+.34",
"o3eqm7bO76nNMnbv77v5::,,6b<<<1<,5mb>>6bmmmmMNMmmmmmmb$bm4@@@+.34",
"o3r8m7b7OnbnMMnbvv73;;;::63,,<<<,bb>>>>6mmmMMMmmmmmmm$vm7@@0+.34",
"oorem7bt7nbbnn511473;;;;;35>,>>,,b6,,,>>6mmMMMmmmmmmmv$mm@@@+.44",
"oorqm7buMnnbb5<111453;;;;;4:>>>>>b,,,,,,>bmmMmmmmmmmmb$mm4@@O.34",
"oorem7bqMmnbb><<11175:;;;;3::::>>b,,,,>>>bmmMmmmmmmmmm$bm7@@O.34",
"o3r%m7b0MMbbb61<<1147>::;;2;::::36,,,,,>>bm7pmvp-mmmmm$7mm@@@.o4",
"o3tem7b$M5>>364>,<11v4>:::o:::::6>>,>,>>6bbpp7p-7mmmmm7$mm4...o4",
"o3t$m7b$M1<>>363>,<<47>>::2:::::6::>>>>6>>bpp5p-vmmmmmb$bm7....4",
"o3tem7b$mv5,>>35:>,<<v,,>:3::::3>:>:>>6>>>>7p-pvmmmmmmm$7mm.  .3",
"o4tqm7b$mmv<>>:33::,<5,,,>4::::6:::>>6>>>>>mppppppvmmmm7$mmOO .3",
"o4tqm7b$mmM5,>>o3::>,4,,,,4>::::::>:6>>>>>>mpppp--pmmmmb$bm4O .o",
"o4tem7b$mmMv<,>:o;,1,,ccx,,,>>4>:>:6>>>>>>bmppp-mmmmmmmm$7m7+..o",
"o4yqm7b$mmmM5,>::;:,1>,,,x,,,>>:>:6>>>>>>bmmpppmmm>7mmmm7$mm+ .o",
"o4yem7b$mmmMv<x1:;;::>,,,,,,,,>>>6>>>>>>bmm7p-pvm7>4mmmmb$bm+ ..",
"o4y0m7b$mmmmm<,>::;:::>,,,x,,,>>6>>>>>b>>cmpp-p-m4>>7mmmm$7m4 . ",
"o4yrm7b$mmmmm5<,:::::::>,,,x>,,4>>>>5b>>>>6>-7pp7>>>4mmmm7$m7   ",
"o34om7b$mmmmmv<<::v::::>,,,1,>4,>>>6b>>>>>>>-mmm4>>>>mmmmb$mm   ",
"o3o3m7b$mmmmhm5<:v::::::>,>,>,>>,>>>6>>>>>>>>mm7>>>>>mmmmm$bm4  ",
"o33.m7b$mmmsamv,4m6:::::>>,>,>,>>>>6>>>>>>>>>mm>>>>>5mmmmm$7m7  ",
"o30$m7b$mmmapvmmmmmm7::>>>>>>>>>>>>>>>>>>>>>6m>>>>>5mmmmmm7$mm  ",
"o3r0m7b$mmmpppvmm6>m5>>>45747474>>>>>>>>>>>>m>>>>>>m7>5mmmb$bm. ",
"o3rem7b$mmm>>>>>>>>>>>>>41c1c147>>>>>>>>>6>>>>>>>>7>>>>5mmm$7m4 ",
"o3rwm7b$mmm>7>>>>>>>>>>>5c111c174>>>>>>>>>>>>>>>>>>>>>>>5mm7$m7 ",
"o3r%m7b$mmm>>>>>>>>>>>>>611111147>>>>>>>>>>>>>>>>>>>>>>>>5mb$mm ",
"o3rwm7b$mmm>>>>>>>>>>>>>611113347>>>>>>>>>>>>>>>>>>>>>>>>5mb$mm ",
"o4r%m7b$mmm4>>>>>>>>>>>>5c111c174>>>>>>>>>>>>>>>>>>>>>>>5mm7$m7 ",
"o4rwm7b$mmm6>>:,>>>>>>>>41c1c147>>>>>>>>>6>>>>>>>>7>>>>5mmm$7m4 ",
"o4r9m7b$mmm>>6mmm6>m5>>>45747474>>>>>>>>>>>>m>>>>>>m7>5mmmb$bm  ",
"o4rwm7b$mmmmmmmmmmmm7>>>>>>>>>>>>>>>>>>>>>>>6m>>>>>5mmmmmm7$mm  ",
"o4r9m7b$mmmmmmv,4m6>:>>>>>>>>>>>>>>6>>>>>>>>>mm>>>>>5mmmmm$7m7  ",
"o4rwm7b$mmmMmm6,,v>:>:>>>>>>>>>>>>>>6>>>>>>>>mm7>>>>>mmmmm$bm4  ",
"o3r%m7b$mmmMmv,,::v>:::>>>>1>>4>>>>6b>>>>>>>-mmm4>>>>mmmmb$mm. .",
"o3rwm7b$mmmMm7,,::::>::>>>,x>>>4>>>>5b>>>>6>-7pp7>>>4mmmm7$mm ..",
"o3r8m7b$mmmMm,,::;;;>,,,>>x,>>>>6>>>>>b>>cmpp-p-m4>>7mmmm$7m7 .o",
"o3rwm7b$mmMMn,x1;;;;>,,,,>,>>>>>>6>>>>>>bmm7p-pvm7>4mmmmb$bm4 .o",
"o3r8m7b$mmMN7,::;;;>x,,,,1>:>>>>>>6>>>>>>bmmpppmmm>7mmmm7$mm. .o",
"o3rwm7b$mmNn,>::o;1x,,cx1,:>:>4>>>>6>>>>>>bmppp-mmmmmmmm$7m7  .3",
"o3r8m7b$nNN7,>:o4:,,15,::>.:>>>>>>>>6>>>>>>mpppp--pmmmmb$bm4 ..4",
"ooywm7b$mNn,>::33,<1<4::;:2>:>>6>>>>>6>>>>>mppppppvmmmm7$mmOO..4",
"o3yym7b$mn6,>:35,<1<<3:;:>3:>>>3>>>>>>6>>>>7p-pvmmmmmmm$7mm@O.o4",
"o444m7b$M7,,:353<1<<33;;;:4>:>>>6>>>>>>6>>bpp5p-vmmmmmb$bm7@+.o4",
"o333m7b$Mv4>356,<1<,4o;;;:5:>>>>6>>>>>>>6bbpp7p-7mmmmm7$mm4@+.o4",
"o33.m7b$Nnbv563<1<,34;;:::5>>,>>36>>>>>>>bm7pmvp-mmmmm$7mm@@+.o4",
"o30#m7b$Mnb76,<1<::44:::>>6,,>,>>b>>>>>>>bmmmmmmmmmmmm$bm7@@+.44",
"o3r0m7b$nb77b51<::343:>>>,6,,,>>>b>>>>>>>bmmmmmmnmmmmb$mm4@@+.34",
"o3rem7b$7v7bMm5::356:>>,<35,,>,>>b6>>>>>6mmmmmmmnmmmm7$mm@@0+.34",
"o3r8m7b4O7bMmnbvvbb>>,<<,63,>,>>>bb>>>>6mmmmmmmnnmmmm$7mm@@%+.34",
"o4rrm7bO6bMmnbvvbnm5,<<,6b,>>>>>5mb>>6bmMNMmmmmnnmmmb$bm7@@%+.34",
"o3r0m7bObMnbbvbbnmMNNNmMbb>>>>>5bmmmmmmmMNMmmmmnnmmm7$mm4@##+.34",
"o3r8m770Mbb67bnmMNNNmmMNMmmnnbnnmmmmmmmmMNMmmmmnnmb7$7m7@#98+.o4",
"o3rrm77i0OO4O$q98$$$$$%98%$$#+@#$$$$$%%8809988%$$$$$7mm4@@9#+.o4",
"o3rqm6777bnmNNNmmmmmmmMNMmmnnbnnmmmmmmmmMNMmmmmnnmmmmm7@@###+.o4",
"o3rqm67bnmNNmmmmmmmmmmMNMmmnnbnnmmmmmmmmMNMmmmmnnmmmm7@@@0%0+.44",
"o4yef*0%0#.or8808##+.3y8q#q$09o4w080%%8+.4r008000#.4r@%@@%%@+.o4",
"ooyljg&ww%3or80080q+.4yyywwwe034wq%%88$O.3yrrrrre03or0%%9009+.44",
"o4o3kd333334yq8$0$$O.444o3343334w00800$O.4o433o4o4o4r%00%##%+.o4"
};
