/* XPM */
static char *f42d1052687145fbb8e9be4b9839e81bLP53N2SLyUcRsH5W[] = {
/* columns rows colors chars-per-pixel */
"64 64 22 1 ",
"  c gray14",
". c gray24",
"X c #414141",
"o c #494949",
"O c #4C4C4C",
"+ c #505050",
"@ c gray33",
"# c #585858",
"$ c #5F5F5F",
"% c #676767",
"& c gray42",
"* c #727272",
"= c gray48",
"- c gray51",
"; c #8E8E8E",
": c #9A9A9A",
"> c #AAAAAA",
", c #B6B6B6",
"< c #C6C6C6",
"1 c #D2D2D2",
"2 c gray87",
"3 c #EFEFEF",
/* pixels */
".+o;1:::;;$O  .X:1,:-:;;;-@o .@@+ooo....++O+.........XO@@@@##@#.",
" #O;<;;>*>%o. .o:2,:;:;;>;#. .o....... ...  . .     ..oO@o     .",
".+o;1>:=>-$o  .o:1,---==;=@. .o;-$$##@ .*=%##@#@###+  .o#O:@+# .",
" #o-1->;>>%O. .o:2>:*:==>&o  #O2-;>:># .=<;=&&&*&&&%@ .X+=1>;+ .",
".+o;1>;>=>$o  .o;2,;:;:;-%o .@o2;>;>-@ .=,1,>;>;-=:=@ ..o:>-;# .",
" #O;<;:>;;$O. .o:2,>;>->;%O  @o2>->;;@ .=<1<;:;;*-;=@  .o>;>>@ .",
".+o;1>;-;>%o. .o:1,;:;:-:@o .##1;>;-># .=,2,>>>:;;;=# ..X<>;:# .",
" #o-2;->>;&@. Xo:2>>->;>;@o .+$2->->;@ .=<1,->-=>;;=@  .o1:>:@ .",
".+o;1;>;;-*@. XO;2,::::;;#o .@;2>;>;:# .=,3<>;>;-=-=# ..o1>->+ .",
" @%>2:;=::;@.. o:2,>;>-:>$o .+,,>->>>@ .=<3,;>;*;;>=@  .X2->:# .",
".o&,2>;:*:-#o..o:11>>->>-*. .o1;->;:;o o=,3>;-:=;>;=@ ..o2>>;@ .",
" o=,2>->::;%o. O=<121<<,<;. .X2-;>>>>+ o=,3,-::;=-;=#  .o2;>>@ .",
".o;21;:=-;>$O. o@=:::;--&o ..o>222<<>* O=<3<>>->;;>=@ ..o1>->@ .",
" o;1,>-:-;-%@.. ooOoOoOoOO@###OOOoOOX #o=,3,;>=;-;-=#  .X2>>:@ .",
".o;2<;>->;>*$. ##                   .o@o=<3,>-;->;>=@ ..o2:;:@ .",
" o-2,>;>;;;&%. #1>-;-;=*&##+#++@+#+#.X#o=,3,;:;>;=;=@. .o,2>:#@.",
".o;22,,>2<>;&..@2<>;>>->;>;;->>;;->+..@O=<31;=:;;;;=@ ..@O=,2@+.",
" o;121222<<,;. #>1<>>>>::->>>>;;>>;>+.+o=>31:;;->-==#. .@@#oO...",
".o&;-;-;*ooOo. o&>12222<>>>->;;>;>:;=.oo=,32:>:=;>;=@  .@@$%$ ..",
" o.......o@+@......$$;,2233333121111>.o#@>22>>-:>=;=#...o,,-% ..",
".       .oO.          %=;;-;-;;;;;;;=#+@#:23>>>>-:-=@ ..O1,:% ..",
" #......   *@....... .X.........XOXOoXooo;13,:>-:;==#.. O2,$$ ..",
".-+#+@..  .:&*+@+#@.              . ....o;,3,;::::;=@ ..=2>:% ..",
" >>-*#...  >:-;>;-#.  #%#ooOOo....      O;<3<;;;==-;#...:2,,+.@.",
".<->;&*&...>1>;-;>@. .=:&%#++@#+#oo... .o=,3,>->=:>=@ ..2>>,..+.",
" ,;;->>>.  :1;->>;&.  ;<<->;;>--&*$$@.  O=<2>>>-;->&@..o1>,>o##.",
".1;>>;-;.. >1>;;->*.  ;2,;-;>->->->;%.  +=,3<-:;>;;*O .o>21,.++.",
" <;->:>;.. ;3-;>>-*.  ;2<:>;;;;>;>;;;. .X=<3,>;=;=># ..OOooO+X..",
".1;>>;>;.. =2,;->;&&. >2,>;>-==;==>;-O  O=,2>;:;->& ..o++o.   ..",
" 1-;>-;:.. *11>;;>;;. >1<:-;;>;>==-:>o .o=<2<;;;>-*..o@o..   ...",
".<>>->>>.. O>2,>->>*..;2,>;==;==>;:;;@  O=<3,;>;;>* .XO.  ..  ..",
" 1;;;>->=. O>,233<<;*+;2<->;;=*=-=;->$. .=,3<-;->;&..o--%@@. ...",
".,,>;;;;o..o*>>>>>>:;.;2,:>-=;>;>;-:;%o .=<3,;;>-;* .o>,=%#.  ..",
" ><1,>=o@oooX.XOOOO. .o<,>=>;=;*;;>=>=# .=,3<;;>;>*..o>1>:%.  ..",
".-->;oooO.... .       O<<-;:-;>;::;;-;$..=<3,,,11,&.o#>1>>$. ...",
" .......              O,2>>;>-;->>>>>>; .=,<<22211:oo+>2>>%.  ..",
".         .....o@OO   +>2;:>;;:>>>,,2,;.o=<<<,<,>;-@#%>1;-$.  ..",
" 2;$@@+#@=#%++#*#&@o  O>3<>-;>,<2331,;ooo%===%o . ..X%,<>>%. ...",
".2<;=&;$&#&&;*++&;*@  O=12333321<>;&@+@+oX.         .&<>-;$.  ..",
" 211>>>;>->;>-;>;&@*  +%=::::;;=+#+OO.. .          ..=1>>>%.  ..",
".11,>>;>;>;=;;>-;;&+   OOOoooooO. .                 .=<>;;$. ...",
" 2,,:-;;;->-=:;>;>;*.  .+@OO.             ........ ..-2;->%.  ..",
".11<>>:;:;-;>-=-;-*@o  $.    ..oO@+####+@##+##@@@.  .;2>;-%.  ..",
" 21<>;:=-;>:;;;>*;>@o  ;:>$$$%%&&%%$$&&%%&%%$&*%@.  .;2-=:$. ...",
".2<,>>:;:;;>->=::;-*o  >;:>==--:>->:;>;>->->;;-&%. ..:2>>=%.  ..",
" 21<>:;:;;;=:;->:=>&#  >>;;;>->>->;>;;-;>;;-;>;;$.  .>1>;;$.  ..",
".11<;>>>>;==:=:;-;>*@. <:>>>;>;;>;;>;;>-;=;:>->;%.  .>2;*=%. ...",
" 21,>>;>-;;=;->:;>-*#  1:>->>;==>>;=>->>;->=->;-%. ..>1>=>$.  ..",
".1,1:>>;>>;:;>->:;>;@..2;:>;-:->;:>::>=::;;>>;->$.  O>2;>=%. ...",
" 21,>>-:::>-;;>-,,::% O2>;>>:*>:>->=-=:>;>:;>->:%.  #>1>;-%.  ..",
".2<<>:>;>>;><1<<<;*ooo#2<:>->>>;::>,2212333321,:=...$>2--:$.  ..",
" 21<1,1<,3122>;*ooo@@@+-121222233322<,:=#o+XoooXO...&>2>>>%. ...",
".1222333<>;*ooOo##@ooo......o              ...X.XXO@;,2=:>$.  O.",
" OoOooooOoOX@+O@            Oo*X**+#@+@#@#     ....O>2,;;-%.  O.",
".+@@#@O. . ..... X......... O;>>->>->;>->&+#+@   . O>2>:;>%. .o.",
" ##          .. :***#+#oO..  ;<:>-=>->=>;;>-;*@@#  %,2;>;:$.  O.",
".+@;-*&#Oo. . ..:>&&&*&%$@. .-1>;>>:>;>;>>;>;&@@@ .;21>=>=%.  O.",
" #@-;==$oo.  ...;,>;>;>-;*o  ;1>>;>:;>->:->>-*##@ o;2,,=;=$. .o.",
".+@;>>;:*@O . ..:1>->-;>;-@. :2,->;;>;>:->;;>-;@# O>1;>>>>%.  o.",
" ##;,:>-:*+o  ..;<;>->;;->%. ;1<>->;>:>->;>>;>:# .o>2>>->-$. .o.",
".+@;1>:,;;*o ...:1>;>;==>;$. &2<>:;>;>;;>;>;>;>= oo>1>>>>>%. .@.",
" #@-1>:->-*o  ..;1;:;>*->-%o %,1,,>>,,>,,>,,,->= @o><122<<-% .+.",
".@#;1>:>>;&# ..O:<:;;;>-;>$O %;>2122122122<1,<,=.#O=>>>>>>>;.O#.",
" #@;1>,,:;*@  .@:1>>>>;;;:%@ o%%%%%%%%%%%%%%%Oooo@ooooooooooo@@."
};
