/* XPM */
static char *_236a8f6384641a7cca9306be7f3e07bSkRqz1hKtpJzr1zZ[] = {
/* columns rows colors chars-per-pixel */
"64 64 25 1 ",
"  c #252525",
". c gray19",
"X c gray23",
"o c #424211",
"O c #585516",
"+ c #6F6B1C",
"@ c gray29",
"# c #555555",
"$ c #646464",
"% c gray44",
"& c #7B7B7B",
"* c #838322",
"= c #9A9A28",
"- c #B2AA2C",
"; c #CAC233",
": c #E3D738",
"> c #FBF347",
", c #8B8B8B",
"< c #979797",
"1 c #A7A7A7",
"2 c gray70",
"3 c gray75",
"4 c gray81",
"5 c gray86",
"6 c gray92",
/* pixels */
".#@,4<&$$,$@. X@<5%%<%<1<%#@ X###@@@XXXX##@@XXXXXXXXX@@########X",
".#@,4,-*&1$@. X@<;***+&<1##X X@XXXXXXX XXX.....     .X@@#@     X",
".#@,&@$&1,,@. X@<;====&1<%#X X@<&$$### X&&$######### .X@#@<### X",
".#@,*+@%,,%@. X@<;;;;11&<%@  X@*+%<1<# X&3*&%%%%%%%$# X@#&51,# X",
".#@;;*@,,<$@. X@<11<1&1<1O@  X@-+$$<%# X&*-*%%%%-&<&# .X@<1,,# X",
".#@;;=$&<,<@X X@<1&&&1<:&+O  X*-+O<<&# X&------%-2,&# .X@2%%%# X",
".#@$$$%%,<%@X X@<-==&&1<:*O .X*-*%&,<# X&;-=%,,<<,<$# .X@;=*%# X",
".#@$@@@@%%,$X.X@<5:==1,1:-O .X-=*%,&%# X&33-%,1<1,;&# .X@4;=*O X",
".#@;:==+@$%#X.X@<;&<<<<,<:O .X-==+++*# X&-331<211<,2# .X@1,11+ X",
".#$;:=++&<,#XX.@<;;&,1:<1$@ XX=======# X&:-,<1-*<1,&# .XO111&# X",
".@%;;&&&1&&XXX.@<;;;&<11<%X XX=+%1,1,@ @&3:&,1:-*<&&# .X+;1;=# X",
".@&35;;&,&:=OX.@&3;;11,<1OX.XX==%1111# @&32-&<,2-<2,# .X+&&;;# X",
".@&22:;;&<1&@X.@#&<<<,,&:=O.XX+%<5431% @**2;-&,<21,,# .X*=&1;O X",
".@&,&2;&1&,$#X. @@@@@@@@@@@@@@@@@@@@@@@@*-*;-&%,<<,,# .X=;&,1+ X",
".@=+$,&,1=@$$X.##.                  XX@@*;*<;&&,13<&#..X-;&1<# X",
".@==+$$,&,=&$X.#$$$###$%:=+O######ooOXX@*;*11;,1-11$#..X+;&,$#@X",
".@=:-++$,2&,%X.#-*#%,131311511-=+O+OoOX@&;-*<1<,1<,%#..X#=,,$@@X",
".@=;::=+$222,X.#--***,151,,1531---*++OX@&2;-3<;,-+1&#..X###@@XXX",
".@%===**&&&%#X.@:-==,1531,%,1315131,&X@@&23<<<;1,-+&#..X##$$$ XX",
".@XXXXXXXXXXXXX@@XX$$,355:-%665554441X@@&13113<;1:-+#.XX@22,$ XX",
".      .XXXXX XXXX   .$&,,,,:-===,,,&##@&13<1<<22,:+# XX@52<$ XX",
".#XXXXXX XXX+O+OXXXX .XXXXXXXX+XX+=@@@@@%11==&,,1,22# XX@52$$ XX",
".,####XXX X+;%#####X ..             XXXX%13;=,21<<,-#.XX$$$<$ XX",
".,#&%#XXX .55==*+,#X .#*+OOoooooX.     X$1<311,222&,#.XX-*+$#X@X",
".%+##%%%XX.541,,,1#X .&=*+$$$###@@@XXX X$<311331,,%&#.XX-**+Oo@X",
".;=++#$1XX 14,:&%$$X .=-==*&&&,$%$$$%#@X$<11311=,21%#.X@-***oo@X",
".;=**O%,XX 151:::+$X  =;*&1<*******$$%#X#,33,%,,2,,%@.X@*-$2X@@X",
".;=+$&1,XX 15,,;:=$#  =;=**<------==$%@X#&11++%<*++#.XX@@@@@@XXX",
".5;&1,1,XX 15,1,1,:%X =;&1<1&<1<&&1-$$o.@&=**+%&--+.XX@##@X...XX",
".5&;1,,1#X %>=&&&&,,X =;=&1<<1<&<&,<*$ .@*;-=*+%--*.X@#@XX   .XX",
".5;&,1-,#X.@>;**&,&%XX<6<<;*1<1<&&<1,%@.@=;-=*+%,2%.X@@X  XX .XX",
".5,,,=*1%X.@1>;::&,,%#,61<;;<&1<1&<,1%# X=;-==+%,<%.X@,&$##X .XX",
".521,;=,%XX@%111::&1,X,6<1<<1<<1<,&&,%# X=;-=*+%&2%.X@13&$#X .XX",
".13531&%#@@@@X@@@@@...@41;*&&&&&,=+$&&%.X=;-===*%,%.X@1,,,$X .XX",
".,,1,@@@@@XXX...      @-1<;=+++%&;*+$&%.X=;-=,3442%X@#1:*,$X .XX",
".XXXXXXX              @;<=<;;==+&;;*+<,.X=;--,5554<@@#1::1$X .XX",
".        ..XXXX@#@@.  @;%<11<1;=+13353,X@=;;-,321,,##$15,4$X .XX",
".5,$#######$###%#%#@  @;-<:;--1;=6642,@@@$++.......X@$3311$X .XX",
".-;-=*,,,,,%,$##$,%#  @=;666666<<1,%###@@XXXXXXXX. .X%,<2&$X .XX",
".-;*,,%,1,1,=$*+%%#%  @$=<<<<<<&###@@XX...         .X&,,,1&X .XX",
".-33,%<1,1,&,,1,,,%#.  @@@@@@@@@X..                .X%**,4,X .XX",
".533<,,<,,1,&<,1,1,%X  X##@@X       ooooOOOOoXXXXX .X*=*,11X .XX",
".5431==*<,,,1,&,,%#%X  $X    ooooooooo###########X .X-=*,3,X .XX",
".5;=1<<&,,1<,,,1%%,%X  2&$$$$$$$$$$$$$$&&&$$$$$$#X .X-=,,1&X .XX",
".5;;=1<4<%%%,1<%1,%%X  2&$+++&&,1&&,1,,,1&,,1,&%$X .X-=,<3%X .XX",
".51;;<<<<-==%,%=*$,$X  2&$=**$,&,,1&,,&$,,1,,,,,$X .X-=,=3$X .XX",
".5<<<&11;;;-=,<;=<,,X. ,&$*&,,1,*,1-*,1,,&$$1,1,$X .X-=,;4$X .XX",
".;-++%&<<&<;,,1<,$$%#. =&$<<**+&11<;-,11,=*$11,,$X .X;=,31$X .XX",
".;--*++&&<<&&1,1*+$<#.X-=$$<11,1<<1<<1&<1,,11,,1$X .@;=131%X .XX",
".;--=*+&<&&<,,1,33<<$.@;-*$$<<4<1,1&,&1<1<1,1,1<$X .#;,241&X .XX",
".;--===,11,144433,%@@@#;-=**$<114<1355556666542<&XXX$:,314%X .XX",
".;444344365551,%@@@####,;---6666665532<&#@@@@@@@@XXX%:1243$X .XX",
".55555555551,%@@###@@@XXXXXX@             ..XXXX@@@#,-3121%X .@X",
".@@@@@@@@@@@####           .@@$@$$########    ..XXX@132323&X .@X",
".#####@X....XXXX.XXXXXXXXXX @,11%%%%%%<%%$$###   ..@=13<*O%X .@X",
".##         ..XX<%%%###@@XX .,11-*+++%,=*++,,$### .$-<21-*OX .@X",
".##,,%%#@@X ..XX<%###,%$$#X .,11---=++%-=++,1,###..,;,31:-*X .@X",
".##,,&,%@@X ..XX<=+++#,,,%@ .,111%,-*+,,-=,,,1$## .=;,323&$X .@X",
".##,1%,,,#@ ..XX<;=*+#%,,,#X <,$,1%1,<*<,<<,1,&## X;;,<32,$X .@X",
".##,2#,1%%#@ .XX<5-==+#,,,$X ,-*$%,1,,-,<1<1,1,$#.X;;--<31$X X@X",
".##,2-#,%,%@ .XX<5----&&1,$X %--*%1,11,1-*&&,,,%#.@;::<343%@ X#X",
".##,--+&1,%@ .XX<-*1,1&=*,$@ $2-==,1<122--***&,& #@1;;3323,$ X#X",
".##,21<21,%# .X@<;-*1,1;=*$@ $,2--%155555----*,&X#@&1111111,X@#X",
".##,4122<,%# .X#<4;-*1,,,<$# @$$$$$$$$$$$$$$$@@@@#@@@@@@@@@@@##X"
};
