/* XPM */
static char *_39d7e191c164fbbc971917beba8cbd9DG7vfFPcLYWl4CmG[] = {
/* columns rows colors chars-per-pixel */
"64 64 20 1 ",
"  c #3A301D",
". c gray23",
"X c #423320",
"o c #493B21",
"O c #543F24",
"+ c #5B4228",
"@ c #6B4A2C",
"# c #724E30",
"$ c #7E5134",
"% c #410941",
"& c #480A48",
"* c #500B50",
"= c #570C57",
"- c #6A0F6E",
"; c gray29",
": c #555555",
"> c #646464",
", c #811281",
"< c #981598",
"1 c #B019B0",
/* pixels */
"=@@=-,-=****&&&&&==--@@@+-==-,++OooO+@@+ooX %%%=XXX=XX***=O,XXX>",
"=@@OOOOOOO==*&&&&**=-#@@,--=@@@+OooO+@@+OoXX   =---===***O@+X-X;",
"=@@O=-,,-,-****&&&*=-###,-=@#@<<,oo*=-*%%%&*=---,,,-=ooooO@+-,X.",
"=@@@XXXXXXXXX**&&&**-,##,,,##+<<,--*=-=%%&&=-,,----=o+Ooo+$@+oXX",
"=@@@@+++OOOOO*=***%&*-,@#<<#+1,-==*=--=%&&=-=-----,-++Ooo=+$$+oX",
"=,@@@@@@++=*==---X***=,@##<#+1,-------*%&=-,-=-,,-,,O+--===+@$+X",
"=,,@@-,,-=*=-,,-XXXXooO+@###+,11<<,,-=%&=-,-==---=-,,O-==-==X@@X",
"=-,,,,-=**=----Xoo---=oo+@#@#+,,,,--=%*=-,,,--,,-==-,-,-==-=X+@X",
"%=----=**=XXXXXoo-,,--*%*-,#@@@@@@++OOO=---,,,<#+oooooXXXXXXX+@X",
"%===***oooooooo-,-===**&*=-,,<<<,,,-=*=-,-,,-,+@#+++--======X+@X",
"%===**oX=--OO,-==-=--=**%&&=-,,,,,-=**-,,,--=-o+@#=-,-=-,==XXO@X",
"%%=**o++OOOOoX---,-==-==&%%&=-,-=-==*=-,,+Oo===o+#oo,,-===XXXO@X",
"%%%*o+X=-,OOoX-,-----=-=-%%&==,--==**=-,,+=%%%=o+#+++++==X+-XO+X",
"%%%&ooX=-,,OOoX-XXX  ==-,-&&+=,,,--=**-,+@Oo=%%=o,-,XXXXoO-,XOOX",
"%%%*O+OOOO,,,@OXOOOOO -,-=**++,,,-==**=-+@+Ooo==o,-,oooXoO+OXooX",
"%%%*O+X%====,+@O@O =-=-=,-=*+++,--=****=o+@@,,--=@=-+O&&&*=,=oo.",
"%%%&++OooX=,XX+@@OOO====,--=*+++ooooooooo++@OOoo@+*=+OooXX*=-oo;",
"%%%*+@OO%==XOO@@@O =--==-,,-=*******=-,-=o,<<<,,@+*=o+---**-,,X:",
"%%%*+@+ooXXOO-,@@@O =-==-,-=**o*&&&*=-,,=,-,,@@@@+&*=-,,-*=-,,X:",
"%%==@@@@@+OO-,,O@@Oo   -,--=**=====**-,,-==--,@@@++OoooXXXXX,,X;",
"%--=+@@##@+O=-,o@@@OOOoXX-,-==-----==---,*===-,@@@+--,-=&&*=--X.",
"=,-=+@@###@+O=-=o@@@@,,,,--XXXXXXXX--,-===***=--@@@+,-=&**&*=-oX",
"=-,-=+##$#@@+OOOOOOOOOO--,XXooooooo==-=XX*&&*===-,@@OoXX==-*-,oX",
"-,--=o@#$$#@@+=,,,=O==---XXoOOOOOOXXXXX===*&*=-----===&*=*&&&-oX",
",,,,-o@##$$$@@@@@=======-OoOOOOOOOOOO---=-=*=-,-,-==*XooX     oX",
",,,-,-o@#o--,,,,,,-,-===OOO---=-,,===-====**=--,--=*&oOOoXXXXXOX",
"-,,,-=XO@O@oooo==-----o+OoOOOOO-,,--==-,-=*=-,,-,-*&o+o &*-==XOX",
"=---===XX@OOOOoooXXXXoO@OO-<,-=-,,,,,=-,,-*=-,,,-ooo++o  &*-XX+X",
"%=*==--=-XXX=**&&&&*==o+oO=,,===--,,-,=-,,=----o+++++OoXX    o+X",
"%*=*-,,-,-*&&=**&&*==XXOoX=OOXXX=---====--====o@+,,,+OoX  &&Xo+X",
"%%*=,++OoXXX&*--=-=XoXXXoXoOo,,-,-====&===-===@+,<,@+-=,,-&=Xo+X",
"%%*=+@O=-,--**,--==oOX=XXoXo-<,--=&&=-=&&=-==,<,<,-+o--,,-==XO+X",
"%%%*+@O=,,-=**,-==OOOOX=XooX-=-<,,-=&&=&&&==,<1<,@+oo=-,,,-=XO@X",
"%%%*+@@O=-,,*=--o+@+,X-,=OOXXXX-<<,-*&&%%%%*,<,-@@+oo=,,--=-XO@X",
"%%**=+@+++=-**==+@+<OO=-,,,OOOOO-ooXXXXX  Xo+@@@@@+Oo&=-==--o+#X",
"%%==*=+@++ooX*=o+$+,,OX==-,@<,+XOOooXXX-=&&*O++@@+OOooXXXXXXo+$X",
"%==--*==-=**&&*o@$+<,@+OXX-@<,-Ooo===&&,-&&*O+@@+Oo++ooo===Xo+#X",
"=-++@OXo+Oo=&%&o@$+1<,@OOX-@<,,@O&=--===&&&*O@##@@+o++oo&,=Xo+@X",
"-++-,--=---=*%&=+$@-1<@@@O=-<<,@+X*=-=-=&&&*O@$#@O++oo&&&==Xo,+X",
"-@+--,----===**&*@$+1,@,,@==<<<+@+o&&%%&&&**=O@$#+O@+oXXXXXXo+oX",
"-@+,=,,==-==---=*=,,@#@--@--,<<,+@@oo+oXX  XooO+@@@@o   &,==XXo.",
"-@@+--===-=-,,,-***=,@####@@@,,<,,-=--=*==*&%%&*=@,@OX&&&====Xo:",
"-<@@,,-=-=o+@++OoX**=,@@@@@,,,,,,,,,,-=**=-=****===@OOX&&=,=,Xo>",
"-,<<,-====O@+,-====**-,,,,,,-==-,,,,-=*&*-,-==--=-=o@OOXX,,==oo>",
"%-,,-==--=+@--,,---=**------=*&X*====*&*==-==-,,-,-=o@+++,===o+;",
"%%====-,-=+@+-====,-=*-===X**&&Xo-,-=&&**,-===-XX-=* oooo   Xo+.",
"%%**==--==+@@+++Oo-,-*=XooXX-=XO,+ooooo*-,OOoXX<-XXXXX====-,Xo+X",
"%%%**-,-=--+@@@@,,,,-==+O=-=,-o-++-,-=**,,OOOO=,<-%&*=-,----Xo@X",
"%%%&*-,-==--=+++@@,-,=*++-==-,o,++oooo==,,@@+==---&&*-,@OOooXo@X",
"%%=%&,-=====-******=-=%%O@@=-,o,++oooooo,,@@+=**-=*-=,@OO-,-Xo+X",
"%=-=&,------=*&%%%&*=-%%%*@++oX<<+++oo-=,,,@@@,=*-=-=,@O-,--Xo+X",
"-=-=*,@+OOooXX      -,==*%@O---<1<+--,,--,,,@,=,==*==,@O--,-,XoX",
"=---=,,@++Oo-*-,-%==,-=--=oO-=-,11<<,,--=--,@+O===-==,@O-,O-,-XX",
",-=-=,,,@++oXX-<-=,--=,,,-=oo*=-,<<,,,-=*=-,,,---=-==,@@=-O--=XX",
"-,-==-,##@++o+-<,=-,-=-,,,-=**===-,,--=*=-=-,,,,,-=*=-,+@OX,-,XX",
"=--==-,+##@++@-,<,===-=,,,-=**=-=====***-,-=--,,-==*=-,<<=O-@OoX",
"%=====-,+###-@+-,<<-===--,--=*-,--,-=***=--=,---==*&*=,<<<O@+,=X",
"%%%==-,-,,<<<@@+---,,-==--=,-==-=-,,-=**-,OOOO,,-=*&*=-,,,,@+-,X",
"%%-=-----,,,<,@@@@@---==,--==,-,,----=*=-@+-,=,,-=*%&*=----@@*-X",
"%%,-,,,-=--,,<,,,---==---XoO+++OoO+oo-==-@+------*&&%&**===O@@+X",
"%-,,-,-,-=---------==-,ooXoO+@+OoO@+oo-=-,@+OOooXX  % &&&***-,XX",
"-,,+oo++++XXXX======-,+@Oo=,-,---,,,,-,-=--,,-==**&%%%&&&&&&*XX.",
"-,++++,,,-==========-,@+O==,--,,,--============*&&%%%%%&&&&&*XX;",
"-+@+,,-,-===========-@@++==,==--===,======*****&**&%&*&&&***XXX>"
};
